<?xml version="1.0" encoding="UTF-8" standalone="no"?>
<!-- Created with Inkscape (http://www.inkscape.org/) -->

<svg
   xmlns:dc="http://purl.org/dc/elements/1.1/"
   xmlns:cc="http://creativecommons.org/ns#"
   xmlns:rdf="http://www.w3.org/1999/02/22-rdf-syntax-ns#"
   xmlns:svg="http://www.w3.org/2000/svg"
   xmlns="http://www.w3.org/2000/svg"
   xmlns:sodipodi="http://sodipodi.sourceforge.net/DTD/sodipodi-0.dtd"
   xmlns:inkscape="http://www.inkscape.org/namespaces/inkscape"
   width="2208"
   height="2208"
   viewBox="0 0 584.19999 584.19999"
   version="1.1"
   id="svg8"
   sodipodi:docname="splash.svg"
   inkscape:version="0.92.2 (5c3e80d, 2017-08-06)"
   inkscape:export-filename="C:\MEDIA\DEV\javascript\ionic\student-mgmt-local\resources\splash.png"
   inkscape:export-xdpi="99.724579"
   inkscape:export-ydpi="99.724579">
  <defs
     id="defs2">
    <clipPath
       clipPathUnits="userSpaceOnUse"
       id="clipPath96">
      <rect
         style="fill:#ffffff;stroke-width:0.26054388"
         id="rect98"
         width="585.10718"
         height="585.10718"
         x="13.976581"
         y="30.61907" />
    </clipPath>
  </defs>
  <sodipodi:namedview
     id="base"
     pagecolor="#ffffff"
     bordercolor="#666666"
     borderopacity="1.0"
     inkscape:pageopacity="0.0"
     inkscape:pageshadow="2"
     inkscape:zoom="0.175"
     inkscape:cx="751.0617"
     inkscape:cy="1234.6471"
     inkscape:document-units="mm"
     inkscape:current-layer="layer1"
     showgrid="false"
     inkscape:window-width="1301"
     inkscape:window-height="760"
     inkscape:window-x="290"
     inkscape:window-y="77"
     inkscape:window-maximized="0"
     units="px"
     showguides="true"
     inkscape:guide-bbox="true">
    <sodipodi:guide
       position="288.65108,660.69026"
       orientation="1,0"
       id="guide4512"
       inkscape:locked="false" />
  </sodipodi:namedview>
  <metadata
     id="metadata5">
    <rdf:RDF>
      <cc:Work
         rdf:about="">
        <dc:format>image/svg+xml</dc:format>
        <dc:type
           rdf:resource="http://purl.org/dc/dcmitype/StillImage" />
        <dc:title></dc:title>
      </cc:Work>
    </rdf:RDF>
  </metadata>
  <g
     inkscape:label="Ebene 1"
     inkscape:groupmode="layer"
     id="layer1"
     transform="translate(-13.976576,-31.526199)">
    <rect
       style="opacity:0.75;fill:#c6ccfd;fill-opacity:0.50588223;stroke-width:0.27956975"
       id="rect10"
       width="618.2486"
       height="618.2486"
       x="-3.0803747"
       y="16.063353" />
    <text
       xml:space="preserve"
       style="font-style:normal;font-variant:normal;font-weight:300;font-stretch:normal;font-size:34.80023956px;line-height:1.25;font-family:Roboto;-inkscape-font-specification:'Roboto Light';letter-spacing:0px;word-spacing:0px;fill:#1a1a1a;fill-opacity:1;stroke:none;stroke-width:0.40781528"
       x="235.6393"
       y="236.83574"
       id="text4508"><tspan
         sodipodi:role="line"
         id="tspan4506"
         x="235.6393"
         y="236.83574"
         style="fill:#1a1a1a;stroke-width:0.40781528">GradeMe</tspan><tspan
         sodipodi:role="line"
         x="235.6393"
         y="280.33603"
         style="fill:#1a1a1a;stroke-width:0.40781528"
         id="tspan4510" /></text>
    <g
       id="g4526"
       transform="matrix(0.16435433,0,0,0.16435433,261.70343,343.09237)">
      <path
         id="path4512"
         d="M 96.9,270.3 V 363 c 0,2.9 1.5,5.5 4,7 l 132,75.9 c 5.3,3.1 12,-0.8 12,-7 v -93.8 c 0,-2.9 -1.5,-5.5 -4,-7 l -132,-74.9 c -5.4,-2.9 -12,1 -12,7.1 z M 280.9,445.9 413,370 c 2.5,-1.4 4,-4.1 4,-7 v -93.7 c 0,-6.2 -6.6,-10 -12,-7 l -132,75.9 c -2.5,1.4 -4,4.1 -4,7 V 439 c -0.1,6.1 6.6,10 11.9,6.9 z"
         inkscape:connector-curvature="0" />
      <path
         id="path4514"
         d="M 249,65.1 37,188.9 c -5.4,3.1 -5.4,10.8 0,13.9 l 212,117.8 c 4.9,2.8 11,2.8 15.9,0 L 453,212.9 c 5.3,-3.1 7,0.8 7,7 v 153.4 c 0,6.8 3.9,10 11,10 4.4,0 10,-3.2 10,-10 V 201.5 c 0,-2.9 -1.5,-5.5 -4,-7 L 264.9,65.1 c -4.9,-2.8 -11,-2.8 -15.9,0 z"
         inkscape:connector-curvature="0" />
    </g>
  </g>
</svg>
